solid ascii
  facet normal -1.000000e+00 0.000000e+00 0.000000e+00
    outer loop
      vertex   -8.200000e+01 9.010930e+01 2.000000e+00
      vertex   -8.200000e+01 9.010930e+01 3.200000e+01
      vertex   -8.200000e+01 9.016322e+01 2.000000e+00
    endloop
  endfacet
  facet normal -1.000000e+00 0.000000e+00 0.000000e+00
    outer loop
      vertex   -8.200000e+01 9.016322e+01 2.000000e+00
      vertex   -8.200000e+01 9.010930e+01 3.200000e+01
      vertex   -8.200000e+01 9.016322e+01 3.200000e+01
    endloop
  endfacet
  facet normal -0.000000e+00 1.000000e+00 0.000000e+00
    outer loop
      vertex   -8.200000e+01 9.016322e+01 2.000000e+00
      vertex   -8.200000e+01 9.016322e+01 3.200000e+01
      vertex   -6.800000e+01 9.016322e+01 2.000000e+00
    endloop
  endfacet
  facet normal 0.000000e+00 1.000000e+00 -0.000000e+00
    outer loop
      vertex   -6.800000e+01 9.016322e+01 2.000000e+00
      vertex   -8.200000e+01 9.016322e+01 3.200000e+01
      vertex   -6.800000e+01 9.016322e+01 3.200000e+01
    endloop
  endfacet
  facet normal 0.000000e+00 -1.000000e+00 0.000000e+00
    outer loop
      vertex   -8.200000e+01 8.016322e+01 3.200000e+01
      vertex   -8.200000e+01 8.016322e+01 2.000000e+00
      vertex   -6.800000e+01 8.016322e+01 3.200000e+01
    endloop
  endfacet
  facet normal 0.000000e+00 -1.000000e+00 -0.000000e+00
    outer loop
      vertex   -6.800000e+01 8.016322e+01 3.200000e+01
      vertex   -8.200000e+01 8.016322e+01 2.000000e+00
      vertex   -6.800000e+01 8.016322e+01 2.000000e+00
    endloop
  endfacet
  facet normal -1.000000e+00 -0.000000e+00 -0.000000e+00
    outer loop
      vertex   -8.200000e+01 8.021714e+01 3.200000e+01
      vertex   -8.200000e+01 8.021714e+01 2.000000e+00
      vertex   -8.200000e+01 8.016322e+01 3.200000e+01
    endloop
  endfacet
  facet normal -1.000000e+00 -0.000000e+00 -0.000000e+00
    outer loop
      vertex   -8.200000e+01 8.016322e+01 3.200000e+01
      vertex   -8.200000e+01 8.021714e+01 2.000000e+00
      vertex   -8.200000e+01 8.016322e+01 2.000000e+00
    endloop
  endfacet
  facet normal 1.000000e+00 -0.000000e+00 0.000000e+00
    outer loop
      vertex   -6.800000e+01 8.016322e+01 3.200000e+01
      vertex   -6.800000e+01 8.016322e+01 2.000000e+00
      vertex   -6.800000e+01 9.016322e+01 3.200000e+01
    endloop
  endfacet
  facet normal 1.000000e+00 -0.000000e+00 0.000000e+00
    outer loop
      vertex   -6.800000e+01 9.016322e+01 3.200000e+01
      vertex   -6.800000e+01 8.016322e+01 2.000000e+00
      vertex   -6.800000e+01 9.016322e+01 2.000000e+00
    endloop
  endfacet
  facet normal -1.000000e+00 0.000000e+00 -4.736952e-16
    outer loop
      vertex   -1.010000e+02 9.000000e+01 3.200000e+01
      vertex   -1.010000e+02 9.000000e+01 2.000000e+00
      vertex   -1.010000e+02 8.000000e+01 3.200000e+01
    endloop
  endfacet
  facet normal -1.000000e+00 -0.000000e+00 -4.736952e-16
    outer loop
      vertex   -1.010000e+02 8.000000e+01 3.200000e+01
      vertex   -1.010000e+02 9.000000e+01 2.000000e+00
      vertex   -1.010000e+02 8.000000e+01 2.000000e+00
    endloop
  endfacet
  facet normal 0.000000e+00 1.000000e+00 0.000000e+00
    outer loop
      vertex   -1.010000e+02 8.000000e+01 3.200000e+01
      vertex   -1.010000e+02 8.000000e+01 2.000000e+00
      vertex   -1.120000e+02 8.000000e+01 3.200000e+01
    endloop
  endfacet
  facet normal 0.000000e+00 1.000000e+00 0.000000e+00
    outer loop
      vertex   -1.120000e+02 8.000000e+01 3.200000e+01
      vertex   -1.010000e+02 8.000000e+01 2.000000e+00
      vertex   -1.120000e+02 8.000000e+01 2.000000e+00
    endloop
  endfacet
  facet normal 0.000000e+00 -1.000000e+00 0.000000e+00
    outer loop
      vertex   -1.120000e+02 9.000000e+01 3.200000e+01
      vertex   -1.120000e+02 9.000000e+01 2.000000e+00
      vertex   -1.010000e+02 9.000000e+01 3.200000e+01
    endloop
  endfacet
  facet normal 0.000000e+00 -1.000000e+00 -0.000000e+00
    outer loop
      vertex   -1.010000e+02 9.000000e+01 3.200000e+01
      vertex   -1.120000e+02 9.000000e+01 2.000000e+00
      vertex   -1.010000e+02 9.000000e+01 2.000000e+00
    endloop
  endfacet
  facet normal 0.000000e+00 -0.000000e+00 1.000000e+00
    outer loop
      vertex   -1.120000e+02 9.000000e+01 3.200000e+01
      vertex   -1.010000e+02 9.000000e+01 3.200000e+01
      vertex   -1.120000e+02 1.000000e+02 3.200000e+01
    endloop
  endfacet
  facet normal -0.000000e+00 0.000000e+00 1.000000e+00
    outer loop
      vertex   -1.120000e+02 1.000000e+02 3.200000e+01
      vertex   -1.010000e+02 9.000000e+01 3.200000e+01
      vertex   -1.000000e+02 1.000000e+02 3.200000e+01
    endloop
  endfacet
  facet normal -0.000000e+00 0.000000e+00 1.000000e+00
    outer loop
      vertex   -1.000000e+02 1.000000e+02 3.200000e+01
      vertex   -1.010000e+02 9.000000e+01 3.200000e+01
      vertex   -1.000000e+02 9.010930e+01 3.200000e+01
    endloop
  endfacet
  facet normal 0.000000e+00 0.000000e+00 1.000000e+00
    outer loop
      vertex   -1.000000e+02 9.010930e+01 3.200000e+01
      vertex   -1.010000e+02 9.000000e+01 3.200000e+01
      vertex   -1.000000e+02 8.021714e+01 3.200000e+01
    endloop
  endfacet
  facet normal -0.000000e+00 0.000000e+00 1.000000e+00
    outer loop
      vertex   -8.200000e+01 9.010930e+01 3.200000e+01
      vertex   -1.000000e+02 8.021714e+01 3.200000e+01
      vertex   -8.200000e+01 8.021714e+01 3.200000e+01
    endloop
  endfacet
  facet normal -1.015061e-15 0.000000e+00 1.000000e+00
    outer loop
      vertex   -6.800000e+01 8.016322e+01 3.200000e+01
      vertex   -8.200000e+01 8.021714e+01 3.200000e+01
      vertex   -8.200000e+01 8.016322e+01 3.200000e+01
    endloop
  endfacet
  facet normal -1.015061e-15 0.000000e+00 1.000000e+00
    outer loop
      vertex   -6.800000e+01 8.016322e+01 3.200000e+01
      vertex   -8.200000e+01 9.010930e+01 3.200000e+01
      vertex   -8.200000e+01 8.021714e+01 3.200000e+01
    endloop
  endfacet
  facet normal -1.015061e-15 0.000000e+00 1.000000e+00
    outer loop
      vertex   -6.800000e+01 8.016322e+01 3.200000e+01
      vertex   -6.800000e+01 9.016322e+01 3.200000e+01
      vertex   -8.200000e+01 9.010930e+01 3.200000e+01
    endloop
  endfacet
  facet normal -1.015061e-15 0.000000e+00 1.000000e+00
    outer loop
      vertex   -8.200000e+01 9.010930e+01 3.200000e+01
      vertex   -6.800000e+01 9.016322e+01 3.200000e+01
      vertex   -8.200000e+01 9.016322e+01 3.200000e+01
    endloop
  endfacet
  facet normal -0.000000e+00 0.000000e+00 1.000000e+00
    outer loop
      vertex   -1.010000e+02 9.000000e+01 3.200000e+01
      vertex   -1.010000e+02 8.000000e+01 3.200000e+01
      vertex   -1.000000e+02 8.021714e+01 3.200000e+01
    endloop
  endfacet
  facet normal 0.000000e+00 0.000000e+00 1.000000e+00
    outer loop
      vertex   -1.000000e+02 8.021714e+01 3.200000e+01
      vertex   -1.010000e+02 8.000000e+01 3.200000e+01
      vertex   -1.000000e+02 7.000000e+01 3.200000e+01
    endloop
  endfacet
  facet normal 0.000000e+00 0.000000e+00 1.000000e+00
    outer loop
      vertex   -1.000000e+02 7.000000e+01 3.200000e+01
      vertex   -1.010000e+02 8.000000e+01 3.200000e+01
      vertex   -1.120000e+02 7.000000e+01 3.200000e+01
    endloop
  endfacet
  facet normal 0.000000e+00 -0.000000e+00 1.000000e+00
    outer loop
      vertex   -1.120000e+02 7.000000e+01 3.200000e+01
      vertex   -1.010000e+02 8.000000e+01 3.200000e+01
      vertex   -1.120000e+02 8.000000e+01 3.200000e+01
    endloop
  endfacet
  facet normal -0.000000e+00 0.000000e+00 1.000000e+00
    outer loop
      vertex   -1.000000e+02 9.010930e+01 3.200000e+01
      vertex   -1.000000e+02 8.021714e+01 3.200000e+01
      vertex   -8.200000e+01 9.010930e+01 3.200000e+01
    endloop
  endfacet
  facet normal -1.000000e+00 -0.000000e+00 -0.000000e+00
    outer loop
      vertex   -1.120000e+02 8.000000e+01 3.200000e+01
      vertex   -1.120000e+02 8.000000e+01 2.000000e+00
      vertex   -1.120000e+02 7.000000e+01 3.200000e+01
    endloop
  endfacet
  facet normal -1.000000e+00 -0.000000e+00 -0.000000e+00
    outer loop
      vertex   -1.120000e+02 7.000000e+01 3.200000e+01
      vertex   -1.120000e+02 8.000000e+01 2.000000e+00
      vertex   -1.120000e+02 7.000000e+01 2.000000e+00
    endloop
  endfacet
  facet normal -0.000000e+00 -1.000000e+00 -0.000000e+00
    outer loop
      vertex   -1.000000e+02 7.000000e+01 3.200000e+01
      vertex   -1.120000e+02 7.000000e+01 3.200000e+01
      vertex   -1.000000e+02 7.000000e+01 2.000000e+00
    endloop
  endfacet
  facet normal -0.000000e+00 -1.000000e+00 -0.000000e+00
    outer loop
      vertex   -1.000000e+02 7.000000e+01 2.000000e+00
      vertex   -1.120000e+02 7.000000e+01 3.200000e+01
      vertex   -1.120000e+02 7.000000e+01 2.000000e+00
    endloop
  endfacet
  facet normal -0.000000e+00 1.000000e+00 -0.000000e+00
    outer loop
      vertex   -1.000000e+02 9.010930e+01 2.000000e+00
      vertex   -1.000000e+02 9.010930e+01 3.200000e+01
      vertex   -8.200000e+01 9.010930e+01 2.000000e+00
    endloop
  endfacet
  facet normal 0.000000e+00 1.000000e+00 -0.000000e+00
    outer loop
      vertex   -8.200000e+01 9.010930e+01 2.000000e+00
      vertex   -1.000000e+02 9.010930e+01 3.200000e+01
      vertex   -8.200000e+01 9.010930e+01 3.200000e+01
    endloop
  endfacet
  facet normal 1.000000e+00 0.000000e+00 4.736952e-16
    outer loop
      vertex   -1.000000e+02 1.000000e+02 2.000000e+00
      vertex   -1.000000e+02 1.000000e+02 3.200000e+01
      vertex   -1.000000e+02 9.010930e+01 2.000000e+00
    endloop
  endfacet
  facet normal 1.000000e+00 0.000000e+00 4.736952e-16
    outer loop
      vertex   -1.000000e+02 9.010930e+01 2.000000e+00
      vertex   -1.000000e+02 1.000000e+02 3.200000e+01
      vertex   -1.000000e+02 9.010930e+01 3.200000e+01
    endloop
  endfacet
  facet normal 0.000000e+00 0.000000e+00 -1.000000e+00
    outer loop
      vertex   -1.120000e+02 9.000000e+01 2.000000e+00
      vertex   -1.120000e+02 1.000000e+02 2.000000e+00
      vertex   -1.010000e+02 9.000000e+01 2.000000e+00
    endloop
  endfacet
  facet normal 0.000000e+00 0.000000e+00 -1.000000e+00
    outer loop
      vertex   -1.010000e+02 9.000000e+01 2.000000e+00
      vertex   -1.120000e+02 1.000000e+02 2.000000e+00
      vertex   -1.000000e+02 1.000000e+02 2.000000e+00
    endloop
  endfacet
  facet normal -0.000000e+00 0.000000e+00 -1.000000e+00
    outer loop
      vertex   -1.000000e+02 9.010930e+01 2.000000e+00
      vertex   -1.010000e+02 9.000000e+01 2.000000e+00
      vertex   -1.000000e+02 1.000000e+02 2.000000e+00
    endloop
  endfacet
  facet normal -0.000000e+00 -0.000000e+00 -1.000000e+00
    outer loop
      vertex   -1.000000e+02 9.010930e+01 2.000000e+00
      vertex   -1.000000e+02 8.021714e+01 2.000000e+00
      vertex   -1.010000e+02 9.000000e+01 2.000000e+00
    endloop
  endfacet
  facet normal 4.934325e-16 1.189260e-22 -1.000000e+00
    outer loop
      vertex   -1.000000e+02 9.010930e+01 2.000000e+00
      vertex   -8.200000e+01 9.010930e+01 2.000000e+00
      vertex   -1.000000e+02 8.021714e+01 2.000000e+00
    endloop
  endfacet
  facet normal 4.934325e-16 0.000000e+00 -1.000000e+00
    outer loop
      vertex   -1.000000e+02 8.021714e+01 2.000000e+00
      vertex   -8.200000e+01 9.010930e+01 2.000000e+00
      vertex   -8.200000e+01 8.021714e+01 2.000000e+00
    endloop
  endfacet
  facet normal 0.000000e+00 0.000000e+00 -1.000000e+00
    outer loop
      vertex   -8.200000e+01 8.021714e+01 2.000000e+00
      vertex   -8.200000e+01 9.010930e+01 2.000000e+00
      vertex   -6.800000e+01 8.016322e+01 2.000000e+00
    endloop
  endfacet
  facet normal 0.000000e+00 0.000000e+00 -1.000000e+00
    outer loop
      vertex   -8.200000e+01 8.016322e+01 2.000000e+00
      vertex   -8.200000e+01 8.021714e+01 2.000000e+00
      vertex   -6.800000e+01 8.016322e+01 2.000000e+00
    endloop
  endfacet
  facet normal 0.000000e+00 -0.000000e+00 -1.000000e+00
    outer loop
      vertex   -8.200000e+01 9.016322e+01 2.000000e+00
      vertex   -6.800000e+01 9.016322e+01 2.000000e+00
      vertex   -8.200000e+01 9.010930e+01 2.000000e+00
    endloop
  endfacet
  facet normal 0.000000e+00 0.000000e+00 -1.000000e+00
    outer loop
      vertex   -8.200000e+01 9.010930e+01 2.000000e+00
      vertex   -6.800000e+01 9.016322e+01 2.000000e+00
      vertex   -6.800000e+01 8.016322e+01 2.000000e+00
    endloop
  endfacet
  facet normal 0.000000e+00 -0.000000e+00 -1.000000e+00
    outer loop
      vertex   -1.010000e+02 9.000000e+01 2.000000e+00
      vertex   -1.000000e+02 8.021714e+01 2.000000e+00
      vertex   -1.010000e+02 8.000000e+01 2.000000e+00
    endloop
  endfacet
  facet normal 0.000000e+00 0.000000e+00 -1.000000e+00
    outer loop
      vertex   -1.010000e+02 8.000000e+01 2.000000e+00
      vertex   -1.000000e+02 8.021714e+01 2.000000e+00
      vertex   -1.000000e+02 7.000000e+01 2.000000e+00
    endloop
  endfacet
  facet normal 0.000000e+00 0.000000e+00 -1.000000e+00
    outer loop
      vertex   -1.120000e+02 7.000000e+01 2.000000e+00
      vertex   -1.010000e+02 8.000000e+01 2.000000e+00
      vertex   -1.000000e+02 7.000000e+01 2.000000e+00
    endloop
  endfacet
  facet normal 0.000000e+00 0.000000e+00 -1.000000e+00
    outer loop
      vertex   -1.120000e+02 7.000000e+01 2.000000e+00
      vertex   -1.120000e+02 8.000000e+01 2.000000e+00
      vertex   -1.010000e+02 8.000000e+01 2.000000e+00
    endloop
  endfacet
  facet normal -0.000000e+00 -1.000000e+00 0.000000e+00
    outer loop
      vertex   -8.200000e+01 8.021714e+01 2.000000e+00
      vertex   -8.200000e+01 8.021714e+01 3.200000e+01
      vertex   -1.000000e+02 8.021714e+01 2.000000e+00
    endloop
  endfacet
  facet normal 0.000000e+00 -1.000000e+00 0.000000e+00
    outer loop
      vertex   -1.000000e+02 8.021714e+01 2.000000e+00
      vertex   -8.200000e+01 8.021714e+01 3.200000e+01
      vertex   -1.000000e+02 8.021714e+01 3.200000e+01
    endloop
  endfacet
  facet normal 1.000000e+00 0.000000e+00 4.736952e-16
    outer loop
      vertex   -1.000000e+02 7.000000e+01 3.200000e+01
      vertex   -1.000000e+02 7.000000e+01 2.000000e+00
      vertex   -1.000000e+02 8.021714e+01 3.200000e+01
    endloop
  endfacet
  facet normal 1.000000e+00 -0.000000e+00 4.736952e-16
    outer loop
      vertex   -1.000000e+02 8.021714e+01 3.200000e+01
      vertex   -1.000000e+02 7.000000e+01 2.000000e+00
      vertex   -1.000000e+02 8.021714e+01 2.000000e+00
    endloop
  endfacet
  facet normal -1.000000e+00 0.000000e+00 0.000000e+00
    outer loop
      vertex   -1.120000e+02 9.000000e+01 2.000000e+00
      vertex   -1.120000e+02 9.000000e+01 3.200000e+01
      vertex   -1.120000e+02 1.000000e+02 2.000000e+00
    endloop
  endfacet
  facet normal -1.000000e+00 0.000000e+00 0.000000e+00
    outer loop
      vertex   -1.120000e+02 1.000000e+02 2.000000e+00
      vertex   -1.120000e+02 9.000000e+01 3.200000e+01
      vertex   -1.120000e+02 1.000000e+02 3.200000e+01
    endloop
  endfacet
  facet normal 0.000000e+00 1.000000e+00 -0.000000e+00
    outer loop
      vertex   -1.000000e+02 1.000000e+02 2.000000e+00
      vertex   -1.120000e+02 1.000000e+02 2.000000e+00
      vertex   -1.000000e+02 1.000000e+02 3.200000e+01
    endloop
  endfacet
  facet normal 0.000000e+00 1.000000e+00 -0.000000e+00
    outer loop
      vertex   -1.000000e+02 1.000000e+02 3.200000e+01
      vertex   -1.120000e+02 1.000000e+02 2.000000e+00
      vertex   -1.120000e+02 1.000000e+02 3.200000e+01
    endloop
  endfacet
endsolid
solid ascii
  facet normal 0.000000e+00 0.000000e+00 1.000000e+00
    outer loop
      vertex   -6.236223e+01 7.316322e+01 2.276911e+01
      vertex   -6.631781e+01 7.316322e+01 2.276911e+01
      vertex   -6.236223e+01 7.016322e+01 2.276911e+01
    endloop
  endfacet
  facet normal 0.000000e+00 0.000000e+00 1.000000e+00
    outer loop
      vertex   -6.236223e+01 7.016322e+01 2.276911e+01
      vertex   -6.631781e+01 7.316322e+01 2.276911e+01
      vertex   -6.631781e+01 7.016322e+01 2.276911e+01
    endloop
  endfacet
  facet normal 1.000000e+00 -0.000000e+00 0.000000e+00
    outer loop
      vertex   -6.631781e+01 7.016322e+01 2.676911e+01
      vertex   -6.631781e+01 7.016322e+01 2.276911e+01
      vertex   -6.631781e+01 7.316322e+01 2.676911e+01
    endloop
  endfacet
  facet normal 1.000000e+00 -0.000000e+00 0.000000e+00
    outer loop
      vertex   -6.631781e+01 7.316322e+01 2.676911e+01
      vertex   -6.631781e+01 7.016322e+01 2.276911e+01
      vertex   -6.631781e+01 7.316322e+01 2.276911e+01
    endloop
  endfacet
  facet normal -0.000000e+00 -0.000000e+00 -1.000000e+00
    outer loop
      vertex   -6.236223e+01 7.316322e+01 2.676911e+01
      vertex   -6.236223e+01 7.016322e+01 2.676911e+01
      vertex   -6.631781e+01 7.316322e+01 2.676911e+01
    endloop
  endfacet
  facet normal 0.000000e+00 -0.000000e+00 -1.000000e+00
    outer loop
      vertex   -6.631781e+01 7.316322e+01 2.676911e+01
      vertex   -6.236223e+01 7.016322e+01 2.676911e+01
      vertex   -6.631781e+01 7.016322e+01 2.676911e+01
    endloop
  endfacet
  facet normal 1.556126e-06 -1.000000e+00 -4.005556e-07
    outer loop
      vertex   -6.236223e+01 7.316322e+01 1.086472e+01
      vertex   -5.836223e+01 7.316323e+01 1.450000e+01
      vertex   -6.236223e+01 7.316322e+01 2.276911e+01
    endloop
  endfacet
  facet normal 1.192093e-06 -1.000000e+00 0.000000e+00
    outer loop
      vertex   -6.236223e+01 7.316322e+01 1.086472e+01
      vertex   -5.836223e+01 7.316323e+01 6.837647e+00
      vertex   -5.836223e+01 7.316323e+01 1.450000e+01
    endloop
  endfacet
  facet normal 1.192093e-06 -1.000000e+00 0.000000e+00
    outer loop
      vertex   -6.236223e+01 7.316322e+01 1.086472e+01
      vertex   -6.236223e+01 7.316322e+01 6.864715e+00
      vertex   -5.836223e+01 7.316323e+01 6.837647e+00
    endloop
  endfacet
  facet normal 0.000000e+00 -1.000000e+00 -0.000000e+00
    outer loop
      vertex   -6.236223e+01 7.316322e+01 1.086472e+01
      vertex   -6.630355e+01 7.316322e+01 6.864715e+00
      vertex   -6.236223e+01 7.316322e+01 6.864715e+00
    endloop
  endfacet
  facet normal -0.000000e+00 -1.000000e+00 -0.000000e+00
    outer loop
      vertex   -6.236223e+01 7.316322e+01 1.086472e+01
      vertex   -6.630355e+01 7.316322e+01 1.086472e+01
      vertex   -6.630355e+01 7.316322e+01 6.864715e+00
    endloop
  endfacet
  facet normal 0.000000e+00 -1.000000e+00 -1.761618e-04
    outer loop
      vertex   -6.236223e+01 7.316322e+01 6.864715e+00
      vertex   -6.236223e+01 7.316323e+01 6.837647e+00
      vertex   -5.836223e+01 7.316323e+01 6.837647e+00
    endloop
  endfacet
  facet normal -6.948718e-07 -1.000000e+00 0.000000e+00
    outer loop
      vertex   -5.150000e+01 7.316322e+01 1.450000e+01
      vertex   -5.150000e+01 7.316322e+01 1.950000e+01
      vertex   -5.836223e+01 7.316323e+01 1.450000e+01
    endloop
  endfacet
  facet normal -6.948718e-07 -1.000000e+00 0.000000e+00
    outer loop
      vertex   -5.836223e+01 7.316323e+01 1.450000e+01
      vertex   -5.150000e+01 7.316322e+01 1.950000e+01
      vertex   -5.836223e+01 7.316323e+01 1.950000e+01
    endloop
  endfacet
  facet normal 2.384186e-06 -1.000000e+00 0.000000e+00
    outer loop
      vertex   -6.236223e+01 7.316322e+01 2.276911e+01
      vertex   -5.836223e+01 7.316323e+01 1.950000e+01
      vertex   -5.836223e+01 7.316323e+01 2.683765e+01
    endloop
  endfacet
  facet normal 0.000000e+00 -1.000000e+00 1.391440e-04
    outer loop
      vertex   -6.236223e+01 7.316322e+01 2.676911e+01
      vertex   -5.836223e+01 7.316323e+01 2.683765e+01
      vertex   -6.236223e+01 7.316323e+01 2.683765e+01
    endloop
  endfacet
  facet normal 2.384186e-06 -1.000000e+00 0.000000e+00
    outer loop
      vertex   -6.236223e+01 7.316322e+01 2.676911e+01
      vertex   -6.236223e+01 7.316322e+01 2.276911e+01
      vertex   -5.836223e+01 7.316323e+01 2.683765e+01
    endloop
  endfacet
  facet normal 0.000000e+00 -1.000000e+00 -0.000000e+00
    outer loop
      vertex   -6.236223e+01 7.316322e+01 2.676911e+01
      vertex   -6.631781e+01 7.316322e+01 2.276911e+01
      vertex   -6.236223e+01 7.316322e+01 2.276911e+01
    endloop
  endfacet
  facet normal -0.000000e+00 -1.000000e+00 -0.000000e+00
    outer loop
      vertex   -6.236223e+01 7.316322e+01 2.676911e+01
      vertex   -6.631781e+01 7.316322e+01 2.676911e+01
      vertex   -6.631781e+01 7.316322e+01 2.276911e+01
    endloop
  endfacet
  facet normal 2.384186e-06 -1.000000e+00 0.000000e+00
    outer loop
      vertex   -5.836223e+01 7.316323e+01 1.450000e+01
      vertex   -5.836223e+01 7.316323e+01 1.950000e+01
      vertex   -6.236223e+01 7.316322e+01 2.276911e+01
    endloop
  endfacet
  facet normal 1.000000e+00 -0.000000e+00 0.000000e+00
    outer loop
      vertex   -6.236223e+01 7.016322e+01 2.276911e+01
      vertex   -6.236223e+01 7.016322e+01 1.086472e+01
      vertex   -6.236223e+01 7.316322e+01 2.276911e+01
    endloop
  endfacet
  facet normal 1.000000e+00 -0.000000e+00 0.000000e+00
    outer loop
      vertex   -6.236223e+01 7.316322e+01 2.276911e+01
      vertex   -6.236223e+01 7.016322e+01 1.086472e+01
      vertex   -6.236223e+01 7.316322e+01 1.086472e+01
    endloop
  endfacet
  facet normal 1.000000e+00 -0.000000e+00 0.000000e+00
    outer loop
      vertex   -6.630355e+01 7.016322e+01 1.086472e+01
      vertex   -6.630355e+01 7.016322e+01 6.864715e+00
      vertex   -6.630355e+01 7.316322e+01 1.086472e+01
    endloop
  endfacet
  facet normal 1.000000e+00 -0.000000e+00 0.000000e+00
    outer loop
      vertex   -6.630355e+01 7.316322e+01 1.086472e+01
      vertex   -6.630355e+01 7.016322e+01 6.864715e+00
      vertex   -6.630355e+01 7.316322e+01 6.864715e+00
    endloop
  endfacet
  facet normal 0.000000e+00 0.000000e+00 1.000000e+00
    outer loop
      vertex   -6.236223e+01 7.316322e+01 6.864715e+00
      vertex   -6.630355e+01 7.316322e+01 6.864715e+00
      vertex   -6.236223e+01 7.016322e+01 6.864715e+00
    endloop
  endfacet
  facet normal 0.000000e+00 0.000000e+00 1.000000e+00
    outer loop
      vertex   -6.236223e+01 7.016322e+01 6.864715e+00
      vertex   -6.630355e+01 7.316322e+01 6.864715e+00
      vertex   -6.630355e+01 7.016322e+01 6.864715e+00
    endloop
  endfacet
  facet normal 0.000000e+00 0.000000e+00 -1.000000e+00
    outer loop
      vertex   -6.236223e+01 7.016322e+01 1.086472e+01
      vertex   -6.630355e+01 7.016322e+01 1.086472e+01
      vertex   -6.236223e+01 7.316322e+01 1.086472e+01
    endloop
  endfacet
  facet normal -0.000000e+00 0.000000e+00 -1.000000e+00
    outer loop
      vertex   -6.236223e+01 7.316322e+01 1.086472e+01
      vertex   -6.630355e+01 7.016322e+01 1.086472e+01
      vertex   -6.630355e+01 7.316322e+01 1.086472e+01
    endloop
  endfacet
  facet normal 1.205480e-06 -1.000000e+00 6.957199e-05
    outer loop
      vertex   -6.236223e+01 7.016322e+01 2.676911e+01
      vertex   -6.236223e+01 7.016323e+01 2.683765e+01
      vertex   -6.631781e+01 7.016322e+01 2.676911e+01
    endloop
  endfacet
  facet normal 2.381893e-06 -1.000000e+00 1.677566e-06
    outer loop
      vertex   -6.631781e+01 7.016322e+01 2.676911e+01
      vertex   -6.236223e+01 7.016323e+01 2.683765e+01
      vertex   -6.800000e+01 7.016322e+01 3.200000e+01
    endloop
  endfacet
  facet normal -2.834623e-06 -1.000000e+00 -0.000000e+00
    outer loop
      vertex   -6.631781e+01 7.016322e+01 2.276911e+01
      vertex   -6.800000e+01 7.016322e+01 3.200000e+01
      vertex   -6.800000e+01 7.016322e+01 2.000000e+00
    endloop
  endfacet
  facet normal 0.000000e+00 -1.000000e+00 -0.000000e+00
    outer loop
      vertex   -6.630355e+01 7.016322e+01 1.086472e+01
      vertex   -6.800000e+01 7.016322e+01 2.000000e+00
      vertex   -6.630355e+01 7.016322e+01 6.864715e+00
    endloop
  endfacet
  facet normal 2.080070e-06 -1.000000e+00 -3.980644e-07
    outer loop
      vertex   -6.630355e+01 7.016322e+01 1.086472e+01
      vertex   -6.631781e+01 7.016322e+01 2.276911e+01
      vertex   -6.800000e+01 7.016322e+01 2.000000e+00
    endloop
  endfacet
  facet normal 1.205480e-06 -1.000000e+00 -3.991119e-07
    outer loop
      vertex   -6.630355e+01 7.016322e+01 1.086472e+01
      vertex   -6.236223e+01 7.016322e+01 2.276911e+01
      vertex   -6.631781e+01 7.016322e+01 2.276911e+01
    endloop
  endfacet
  facet normal 0.000000e+00 -1.000000e+00 0.000000e+00
    outer loop
      vertex   -6.630355e+01 7.016322e+01 1.086472e+01
      vertex   -6.236223e+01 7.016322e+01 1.086472e+01
      vertex   -6.236223e+01 7.016322e+01 2.276911e+01
    endloop
  endfacet
  facet normal 0.000000e+00 -1.000000e+00 -9.236817e-07
    outer loop
      vertex   -6.236223e+01 7.016323e+01 2.683765e+01
      vertex   -5.836223e+01 7.016323e+01 2.683765e+01
      vertex   -6.800000e+01 7.016322e+01 3.200000e+01
    endloop
  endfacet
  facet normal -3.136648e-07 -1.000000e+00 -1.509273e-06
    outer loop
      vertex   -6.800000e+01 7.016322e+01 3.200000e+01
      vertex   -5.836223e+01 7.016323e+01 2.683765e+01
      vertex   -4.893586e+01 7.016322e+01 2.803799e+01
    endloop
  endfacet
  facet normal 0.000000e+00 -1.000000e+00 -0.000000e+00
    outer loop
      vertex   -3.800000e+01 7.016322e+01 3.200000e+01
      vertex   -4.893586e+01 7.016322e+01 2.803799e+01
      vertex   -4.193586e+01 7.016322e+01 2.803799e+01
    endloop
  endfacet
  facet normal -0.000000e+00 -1.000000e+00 0.000000e+00
    outer loop
      vertex   -4.193586e+01 7.016322e+01 2.103799e+01
      vertex   -3.800000e+01 7.016322e+01 3.200000e+01
      vertex   -4.193586e+01 7.016322e+01 2.803799e+01
    endloop
  endfacet
  facet normal 0.000000e+00 -1.000000e+00 0.000000e+00
    outer loop
      vertex   -4.193586e+01 7.016322e+01 2.103799e+01
      vertex   -4.176503e+01 7.016322e+01 1.350075e+01
      vertex   -3.800000e+01 7.016322e+01 3.200000e+01
    endloop
  endfacet
  facet normal 0.000000e+00 -1.000000e+00 -0.000000e+00
    outer loop
      vertex   -4.193586e+01 7.016322e+01 2.103799e+01
      vertex   -4.876503e+01 7.016322e+01 1.350075e+01
      vertex   -4.176503e+01 7.016322e+01 1.350075e+01
    endloop
  endfacet
  facet normal -0.000000e+00 -1.000000e+00 -0.000000e+00
    outer loop
      vertex   -4.193586e+01 7.016322e+01 2.103799e+01
      vertex   -4.893586e+01 7.016322e+01 2.103799e+01
      vertex   -4.876503e+01 7.016322e+01 1.350075e+01
    endloop
  endfacet
  facet normal -0.000000e+00 -1.000000e+00 0.000000e+00
    outer loop
      vertex   -4.876503e+01 7.016322e+01 1.350075e+01
      vertex   -4.893586e+01 7.016322e+01 2.103799e+01
      vertex   -5.150000e+01 7.016322e+01 1.950000e+01
    endloop
  endfacet
  facet normal 0.000000e+00 -1.000000e+00 0.000000e+00
    outer loop
      vertex   -5.150000e+01 7.016322e+01 1.450000e+01
      vertex   -4.876503e+01 7.016322e+01 1.350075e+01
      vertex   -5.150000e+01 7.016322e+01 1.950000e+01
    endloop
  endfacet
  facet normal 0.000000e+00 -1.000000e+00 0.000000e+00
    outer loop
      vertex   -5.150000e+01 7.016322e+01 1.450000e+01
      vertex   -4.876503e+01 7.016322e+01 6.500751e+00
      vertex   -4.876503e+01 7.016322e+01 1.350075e+01
    endloop
  endfacet
  facet normal -5.028860e-07 -1.000000e+00 -1.719382e-07
    outer loop
      vertex   -5.150000e+01 7.016322e+01 1.450000e+01
      vertex   -5.836223e+01 7.016323e+01 6.837647e+00
      vertex   -4.876503e+01 7.016322e+01 6.500751e+00
    endloop
  endfacet
  facet normal -6.948718e-07 -1.000000e+00 -0.000000e+00
    outer loop
      vertex   -5.150000e+01 7.016322e+01 1.450000e+01
      vertex   -5.836223e+01 7.016323e+01 1.450000e+01
      vertex   -5.836223e+01 7.016323e+01 6.837647e+00
    endloop
  endfacet
  facet normal -6.948718e-07 -1.000000e+00 0.000000e+00
    outer loop
      vertex   -5.836223e+01 7.016323e+01 1.950000e+01
      vertex   -5.150000e+01 7.016322e+01 1.950000e+01
      vertex   -5.836223e+01 7.016323e+01 2.683765e+01
    endloop
  endfacet
  facet normal -5.259691e-07 -1.000000e+00 1.579593e-07
    outer loop
      vertex   -5.836223e+01 7.016323e+01 2.683765e+01
      vertex   -5.150000e+01 7.016322e+01 1.950000e+01
      vertex   -4.893586e+01 7.016322e+01 2.803799e+01
    endloop
  endfacet
  facet normal 0.000000e+00 -1.000000e+00 -0.000000e+00
    outer loop
      vertex   -4.893586e+01 7.016322e+01 2.803799e+01
      vertex   -5.150000e+01 7.016322e+01 1.950000e+01
      vertex   -4.893586e+01 7.016322e+01 2.103799e+01
    endloop
  endfacet
  facet normal -4.320352e-07 -1.000000e+00 1.846399e-06
    outer loop
      vertex   -4.876503e+01 7.016322e+01 6.500751e+00
      vertex   -5.836223e+01 7.016323e+01 6.837647e+00
      vertex   -6.800000e+01 7.016322e+01 2.000000e+00
    endloop
  endfacet
  facet normal -0.000000e+00 -1.000000e+00 0.000000e+00
    outer loop
      vertex   -3.800000e+01 7.016322e+01 2.000000e+00
      vertex   -4.876503e+01 7.016322e+01 6.500751e+00
      vertex   -6.800000e+01 7.016322e+01 2.000000e+00
    endloop
  endfacet
  facet normal 0.000000e+00 -1.000000e+00 0.000000e+00
    outer loop
      vertex   -3.800000e+01 7.016322e+01 2.000000e+00
      vertex   -4.176503e+01 7.016322e+01 6.500751e+00
      vertex   -4.876503e+01 7.016322e+01 6.500751e+00
    endloop
  endfacet
  facet normal -0.000000e+00 -1.000000e+00 -0.000000e+00
    outer loop
      vertex   -3.800000e+01 7.016322e+01 2.000000e+00
      vertex   -4.176503e+01 7.016322e+01 1.350075e+01
      vertex   -4.176503e+01 7.016322e+01 6.500751e+00
    endloop
  endfacet
  facet normal -0.000000e+00 -1.000000e+00 0.000000e+00
    outer loop
      vertex   -3.800000e+01 7.016322e+01 2.000000e+00
      vertex   -3.800000e+01 7.016322e+01 3.200000e+01
      vertex   -4.176503e+01 7.016322e+01 1.350075e+01
    endloop
  endfacet
  facet normal -0.000000e+00 -1.000000e+00 -1.761618e-04
    outer loop
      vertex   -6.236223e+01 7.016322e+01 6.864715e+00
      vertex   -6.630355e+01 7.016322e+01 6.864715e+00
      vertex   -6.236223e+01 7.016323e+01 6.837647e+00
    endloop
  endfacet
  facet normal 1.206950e-06 -1.000000e+00 -4.208934e-07
    outer loop
      vertex   -6.236223e+01 7.016323e+01 6.837647e+00
      vertex   -6.630355e+01 7.016322e+01 6.864715e+00
      vertex   -6.800000e+01 7.016322e+01 2.000000e+00
    endloop
  endfacet
  facet normal 0.000000e+00 -1.000000e+00 9.856800e-07
    outer loop
      vertex   -5.836223e+01 7.016323e+01 6.837647e+00
      vertex   -6.236223e+01 7.016323e+01 6.837647e+00
      vertex   -6.800000e+01 7.016322e+01 2.000000e+00
    endloop
  endfacet
  facet normal -2.834623e-06 -1.000000e+00 0.000000e+00
    outer loop
      vertex   -6.631781e+01 7.016322e+01 2.276911e+01
      vertex   -6.631781e+01 7.016322e+01 2.676911e+01
      vertex   -6.800000e+01 7.016322e+01 3.200000e+01
    endloop
  endfacet
  facet normal -0.000000e+00 -1.000000e+00 -0.000000e+00
    outer loop
      vertex   -3.800000e+01 7.016322e+01 3.200000e+01
      vertex   -6.800000e+01 7.016322e+01 3.200000e+01
      vertex   -4.893586e+01 7.016322e+01 2.803799e+01
    endloop
  endfacet
  facet normal 1.000000e+00 0.000000e+00 -0.000000e+00
    outer loop
      vertex   -6.236223e+01 7.016322e+01 2.676911e+01
      vertex   -6.236223e+01 7.316322e+01 2.676911e+01
      vertex   -6.236223e+01 7.016323e+01 2.683765e+01
    endloop
  endfacet
  facet normal 1.000000e+00 -0.000000e+00 0.000000e+00
    outer loop
      vertex   -6.236223e+01 7.016323e+01 2.683765e+01
      vertex   -6.236223e+01 7.316322e+01 2.676911e+01
      vertex   -6.236223e+01 7.316323e+01 2.683765e+01
    endloop
  endfacet
  facet normal -1.000000e+00 -0.000000e+00 -0.000000e+00
    outer loop
      vertex   -5.836223e+01 7.316323e+01 1.450000e+01
      vertex   -5.836223e+01 7.316323e+01 6.837647e+00
      vertex   -5.836223e+01 7.016323e+01 1.450000e+01
    endloop
  endfacet
  facet normal -1.000000e+00 -0.000000e+00 -0.000000e+00
    outer loop
      vertex   -5.836223e+01 7.016323e+01 1.450000e+01
      vertex   -5.836223e+01 7.316323e+01 6.837647e+00
      vertex   -5.836223e+01 7.016323e+01 6.837647e+00
    endloop
  endfacet
  facet normal 1.000000e+00 -0.000000e+00 0.000000e+00
    outer loop
      vertex   -6.236223e+01 7.016322e+01 6.864715e+00
      vertex   -6.236223e+01 7.016323e+01 6.837647e+00
      vertex   -6.236223e+01 7.316322e+01 6.864715e+00
    endloop
  endfacet
  facet normal 1.000000e+00 -0.000000e+00 0.000000e+00
    outer loop
      vertex   -6.236223e+01 7.316322e+01 6.864715e+00
      vertex   -6.236223e+01 7.016323e+01 6.837647e+00
      vertex   -6.236223e+01 7.316323e+01 6.837647e+00
    endloop
  endfacet
  facet normal 0.000000e+00 -0.000000e+00 1.000000e+00
    outer loop
      vertex   -6.236223e+01 7.016323e+01 6.837647e+00
      vertex   -5.836223e+01 7.016323e+01 6.837647e+00
      vertex   -6.236223e+01 7.316323e+01 6.837647e+00
    endloop
  endfacet
  facet normal -0.000000e+00 0.000000e+00 1.000000e+00
    outer loop
      vertex   -6.236223e+01 7.316323e+01 6.837647e+00
      vertex   -5.836223e+01 7.016323e+01 6.837647e+00
      vertex   -5.836223e+01 7.316323e+01 6.837647e+00
    endloop
  endfacet
  facet normal -1.000000e+00 0.000000e+00 0.000000e+00
    outer loop
      vertex   -5.836223e+01 7.016323e+01 1.950000e+01
      vertex   -5.836223e+01 7.016323e+01 2.683765e+01
      vertex   -5.836223e+01 7.316323e+01 1.950000e+01
    endloop
  endfacet
  facet normal -1.000000e+00 0.000000e+00 0.000000e+00
    outer loop
      vertex   -5.836223e+01 7.316323e+01 1.950000e+01
      vertex   -5.836223e+01 7.016323e+01 2.683765e+01
      vertex   -5.836223e+01 7.316323e+01 2.683765e+01
    endloop
  endfacet
  facet normal 0.000000e+00 0.000000e+00 -1.000000e+00
    outer loop
      vertex   -5.836223e+01 7.016323e+01 2.683765e+01
      vertex   -6.236223e+01 7.016323e+01 2.683765e+01
      vertex   -5.836223e+01 7.316323e+01 2.683765e+01
    endloop
  endfacet
  facet normal -0.000000e+00 0.000000e+00 -1.000000e+00
    outer loop
      vertex   -5.836223e+01 7.316323e+01 2.683765e+01
      vertex   -6.236223e+01 7.016323e+01 2.683765e+01
      vertex   -6.236223e+01 7.316323e+01 2.683765e+01
    endloop
  endfacet
  facet normal -1.294300e-15 0.000000e+00 1.000000e+00
    outer loop
      vertex   -5.836223e+01 7.316323e+01 1.450000e+01
      vertex   -5.836223e+01 7.016323e+01 1.450000e+01
      vertex   -5.150000e+01 7.316322e+01 1.450000e+01
    endloop
  endfacet
  facet normal -1.294300e-15 0.000000e+00 1.000000e+00
    outer loop
      vertex   -5.150000e+01 7.316322e+01 1.450000e+01
      vertex   -5.836223e+01 7.016323e+01 1.450000e+01
      vertex   -5.150000e+01 7.016322e+01 1.450000e+01
    endloop
  endfacet
  facet normal -1.000000e+00 0.000000e+00 0.000000e+00
    outer loop
      vertex   -5.150000e+01 7.016322e+01 1.450000e+01
      vertex   -5.150000e+01 7.016322e+01 1.950000e+01
      vertex   -5.150000e+01 7.316322e+01 1.450000e+01
    endloop
  endfacet
  facet normal -1.000000e+00 0.000000e+00 0.000000e+00
    outer loop
      vertex   -5.150000e+01 7.316322e+01 1.450000e+01
      vertex   -5.150000e+01 7.016322e+01 1.950000e+01
      vertex   -5.150000e+01 7.316322e+01 1.950000e+01
    endloop
  endfacet
  facet normal 1.035440e-15 0.000000e+00 -1.000000e+00
    outer loop
      vertex   -5.836223e+01 7.316323e+01 1.950000e+01
      vertex   -5.150000e+01 7.316322e+01 1.950000e+01
      vertex   -5.836223e+01 7.016323e+01 1.950000e+01
    endloop
  endfacet
  facet normal 1.035440e-15 0.000000e+00 -1.000000e+00
    outer loop
      vertex   -5.836223e+01 7.016323e+01 1.950000e+01
      vertex   -5.150000e+01 7.316322e+01 1.950000e+01
      vertex   -5.150000e+01 7.016322e+01 1.950000e+01
    endloop
  endfacet
  facet normal 1.000000e+00 -0.000000e+00 0.000000e+00
    outer loop
      vertex   -4.876503e+01 7.016322e+01 1.350075e+01
      vertex   -4.876503e+01 7.016322e+01 6.500751e+00
      vertex   -4.876503e+01 7.216322e+01 1.350075e+01
    endloop
  endfacet
  facet normal 1.000000e+00 -0.000000e+00 0.000000e+00
    outer loop
      vertex   -4.876503e+01 7.216322e+01 1.350075e+01
      vertex   -4.876503e+01 7.016322e+01 6.500751e+00
      vertex   -4.876503e+01 7.216322e+01 6.500751e+00
    endloop
  endfacet
  facet normal 0.000000e+00 -0.000000e+00 1.000000e+00
    outer loop
      vertex   -4.876503e+01 7.016322e+01 6.500751e+00
      vertex   -4.176503e+01 7.016322e+01 6.500751e+00
      vertex   -4.876503e+01 7.216322e+01 6.500751e+00
    endloop
  endfacet
  facet normal -0.000000e+00 0.000000e+00 1.000000e+00
    outer loop
      vertex   -4.876503e+01 7.216322e+01 6.500751e+00
      vertex   -4.176503e+01 7.016322e+01 6.500751e+00
      vertex   -4.176503e+01 7.216322e+01 6.500751e+00
    endloop
  endfacet
  facet normal -1.000000e+00 0.000000e+00 0.000000e+00
    outer loop
      vertex   -4.176503e+01 7.016322e+01 6.500751e+00
      vertex   -4.176503e+01 7.016322e+01 1.350075e+01
      vertex   -4.176503e+01 7.216322e+01 6.500751e+00
    endloop
  endfacet
  facet normal -1.000000e+00 0.000000e+00 0.000000e+00
    outer loop
      vertex   -4.176503e+01 7.216322e+01 6.500751e+00
      vertex   -4.176503e+01 7.016322e+01 1.350075e+01
      vertex   -4.176503e+01 7.216322e+01 1.350075e+01
    endloop
  endfacet
  facet normal 0.000000e+00 0.000000e+00 -1.000000e+00
    outer loop
      vertex   -4.176503e+01 7.016322e+01 1.350075e+01
      vertex   -4.876503e+01 7.016322e+01 1.350075e+01
      vertex   -4.176503e+01 7.216322e+01 1.350075e+01
    endloop
  endfacet
  facet normal -0.000000e+00 0.000000e+00 -1.000000e+00
    outer loop
      vertex   -4.176503e+01 7.216322e+01 1.350075e+01
      vertex   -4.876503e+01 7.016322e+01 1.350075e+01
      vertex   -4.876503e+01 7.216322e+01 1.350075e+01
    endloop
  endfacet
  facet normal 0.000000e+00 -1.000000e+00 0.000000e+00
    outer loop
      vertex   -4.876503e+01 7.216322e+01 1.350075e+01
      vertex   -4.876503e+01 7.216322e+01 6.500751e+00
      vertex   -4.176503e+01 7.216322e+01 1.350075e+01
    endloop
  endfacet
  facet normal 0.000000e+00 -1.000000e+00 -0.000000e+00
    outer loop
      vertex   -4.176503e+01 7.216322e+01 1.350075e+01
      vertex   -4.876503e+01 7.216322e+01 6.500751e+00
      vertex   -4.176503e+01 7.216322e+01 6.500751e+00
    endloop
  endfacet
  facet normal 1.000000e+00 -0.000000e+00 0.000000e+00
    outer loop
      vertex   -4.893586e+01 7.016322e+01 2.803799e+01
      vertex   -4.893586e+01 7.016322e+01 2.103799e+01
      vertex   -4.893586e+01 7.216322e+01 2.803799e+01
    endloop
  endfacet
  facet normal 1.000000e+00 -0.000000e+00 0.000000e+00
    outer loop
      vertex   -4.893586e+01 7.216322e+01 2.803799e+01
      vertex   -4.893586e+01 7.016322e+01 2.103799e+01
      vertex   -4.893586e+01 7.216322e+01 2.103799e+01
    endloop
  endfacet
  facet normal 0.000000e+00 -0.000000e+00 1.000000e+00
    outer loop
      vertex   -4.893586e+01 7.016322e+01 2.103799e+01
      vertex   -4.193586e+01 7.016322e+01 2.103799e+01
      vertex   -4.893586e+01 7.216322e+01 2.103799e+01
    endloop
  endfacet
  facet normal -0.000000e+00 0.000000e+00 1.000000e+00
    outer loop
      vertex   -4.893586e+01 7.216322e+01 2.103799e+01
      vertex   -4.193586e+01 7.016322e+01 2.103799e+01
      vertex   -4.193586e+01 7.216322e+01 2.103799e+01
    endloop
  endfacet
  facet normal -1.000000e+00 0.000000e+00 0.000000e+00
    outer loop
      vertex   -4.193586e+01 7.016322e+01 2.103799e+01
      vertex   -4.193586e+01 7.016322e+01 2.803799e+01
      vertex   -4.193586e+01 7.216322e+01 2.103799e+01
    endloop
  endfacet
  facet normal -1.000000e+00 0.000000e+00 0.000000e+00
    outer loop
      vertex   -4.193586e+01 7.216322e+01 2.103799e+01
      vertex   -4.193586e+01 7.016322e+01 2.803799e+01
      vertex   -4.193586e+01 7.216322e+01 2.803799e+01
    endloop
  endfacet
  facet normal 0.000000e+00 0.000000e+00 -1.000000e+00
    outer loop
      vertex   -4.193586e+01 7.016322e+01 2.803799e+01
      vertex   -4.893586e+01 7.016322e+01 2.803799e+01
      vertex   -4.193586e+01 7.216322e+01 2.803799e+01
    endloop
  endfacet
  facet normal -0.000000e+00 0.000000e+00 -1.000000e+00
    outer loop
      vertex   -4.193586e+01 7.216322e+01 2.803799e+01
      vertex   -4.893586e+01 7.016322e+01 2.803799e+01
      vertex   -4.893586e+01 7.216322e+01 2.803799e+01
    endloop
  endfacet
  facet normal 0.000000e+00 -1.000000e+00 0.000000e+00
    outer loop
      vertex   -4.893586e+01 7.216322e+01 2.803799e+01
      vertex   -4.893586e+01 7.216322e+01 2.103799e+01
      vertex   -4.193586e+01 7.216322e+01 2.803799e+01
    endloop
  endfacet
  facet normal 0.000000e+00 -1.000000e+00 -0.000000e+00
    outer loop
      vertex   -4.193586e+01 7.216322e+01 2.803799e+01
      vertex   -4.893586e+01 7.216322e+01 2.103799e+01
      vertex   -4.193586e+01 7.216322e+01 2.103799e+01
    endloop
  endfacet
  facet normal 1.000000e+00 0.000000e+00 -0.000000e+00
    outer loop
      vertex   -3.800000e+01 1.001632e+02 2.000000e+00
      vertex   -3.800000e+01 1.001632e+02 3.200000e+01
      vertex   -3.800000e+01 7.016322e+01 2.000000e+00
    endloop
  endfacet
  facet normal 1.000000e+00 0.000000e+00 -0.000000e+00
    outer loop
      vertex   -3.800000e+01 7.016322e+01 2.000000e+00
      vertex   -3.800000e+01 1.001632e+02 3.200000e+01
      vertex   -3.800000e+01 7.016322e+01 3.200000e+01
    endloop
  endfacet
  facet normal -1.000000e+00 0.000000e+00 0.000000e+00
    outer loop
      vertex   -6.800000e+01 7.016322e+01 2.000000e+00
      vertex   -6.800000e+01 7.016322e+01 3.200000e+01
      vertex   -6.800000e+01 1.001632e+02 2.000000e+00
    endloop
  endfacet
  facet normal -1.000000e+00 0.000000e+00 0.000000e+00
    outer loop
      vertex   -6.800000e+01 1.001632e+02 2.000000e+00
      vertex   -6.800000e+01 7.016322e+01 3.200000e+01
      vertex   -6.800000e+01 1.001632e+02 3.200000e+01
    endloop
  endfacet
  facet normal 0.000000e+00 0.000000e+00 1.000000e+00
    outer loop
      vertex   -3.800000e+01 1.001632e+02 3.200000e+01
      vertex   -6.800000e+01 1.001632e+02 3.200000e+01
      vertex   -3.800000e+01 7.016322e+01 3.200000e+01
    endloop
  endfacet
  facet normal 0.000000e+00 0.000000e+00 1.000000e+00
    outer loop
      vertex   -3.800000e+01 7.016322e+01 3.200000e+01
      vertex   -6.800000e+01 1.001632e+02 3.200000e+01
      vertex   -6.800000e+01 7.016322e+01 3.200000e+01
    endloop
  endfacet
  facet normal 0.000000e+00 1.000000e+00 -0.000000e+00
    outer loop
      vertex   -3.800000e+01 1.001632e+02 2.000000e+00
      vertex   -6.800000e+01 1.001632e+02 2.000000e+00
      vertex   -3.800000e+01 1.001632e+02 3.200000e+01
    endloop
  endfacet
  facet normal 0.000000e+00 1.000000e+00 -0.000000e+00
    outer loop
      vertex   -3.800000e+01 1.001632e+02 3.200000e+01
      vertex   -6.800000e+01 1.001632e+02 2.000000e+00
      vertex   -6.800000e+01 1.001632e+02 3.200000e+01
    endloop
  endfacet
  facet normal 2.960595e-16 0.000000e+00 -1.000000e+00
    outer loop
      vertex   -3.800000e+01 7.016322e+01 2.000000e+00
      vertex   -6.800000e+01 7.016322e+01 2.000000e+00
      vertex   -3.800000e+01 1.001632e+02 2.000000e+00
    endloop
  endfacet
  facet normal 2.960595e-16 0.000000e+00 -1.000000e+00
    outer loop
      vertex   -3.800000e+01 1.001632e+02 2.000000e+00
      vertex   -6.800000e+01 7.016322e+01 2.000000e+00
      vertex   -6.800000e+01 1.001632e+02 2.000000e+00
    endloop
  endfacet
endsolid
